<svg xmlns="http://www.w3.org/2000/svg" width="104" height="104" viewBox="0 0 104 104" role="img"><title>html-decoder</title>
<svg viewBox="0 0 13.99993896484375 14" preserveAspectRatio="xMidYMid meet" xmlns="http://www.w3.org/2000/svg" x="4.0625" y="5.6875" width="52.8125" height="52.8125" overflow="visible">
            <path d="M5.55762 1.76367q-0.29395 0.04102-0.60157 0.16748-0.30762 0.12646-0.56054 0.30762-0.11279 0.09912-0.2666 0.25977-0.15381 0.16064-0.22217 0.2871-0.22559 0.33496-0.32471 0.68702-0.0957 0.34863-0.08203 0.76904 0.02734 0.46143 0.1333 0.88867 0.10596 0.42725 0.3418 1.04248 0.01367 0.01367-0.14014 0.11279-1.18945 0.7417-1.44238 2.03028-0.15381 0.85449 0.07861 1.63379 0.23242 0.77588 0.82031 1.36377 0.44775 0.46143 1.03565 0.70068 0.58789 0.23584 1.23047 0.23584 0.82715 0 1.6372-0.2666 0.81348-0.2666 1.45606-0.75537l0.15381-0.1128 0.28027 0.15381q0.43408 0.25293 1.04248 0.57422 0.61182 0.32129 0.7793 0.3794 0.23584 0.08203 0.45117-0.04102 0.21875-0.12647 0.29053-0.37939 0.04101-0.19482-0.04102-0.3794-0.05811-0.12647-0.16406-0.20166-0.10254-0.07861-0.53662-0.28711-0.30762-0.16748-0.76563-0.40332-0.45459-0.23926-0.46826-0.25293-0.01367-0.01709 0.08545-0.15723 0.50244-0.66992 0.78272-1.52441 0.12646-0.37939 0.21191-0.96728l0.01367-0.05469 0.2085 0q0.21191 0 0.30761-0.02734 0.09912-0.02734 0.19825-0.12647 0.18115-0.18115 0.18115-0.42041 0-0.23926-0.16748-0.40674-0.07178-0.06836-0.16748-0.12646l-0.08545-0.04102-1.89014 0q-0.15381 0-0.23926 0.0376-0.08203 0.03418-0.17431 0.11963-0.08887 0.08203-0.1333 0.16406-0.02734 0.07178-0.03418 0.11279-0.00684 0.04102-0.00684 0.14014 0 0.15381 0.04102 0.25293 0.11279 0.2085 0.3247 0.29395 0.0957 0.02734 0.26319 0.02734l0.18457 0 0 0.04101q0 0.07178-0.05127 0.27344-0.04785 0.20166-0.11621 0.38623-0.15723 0.4751-0.39307 0.86817-0.08545 0.14014-0.21191 0.30761-0.12305 0.16748-0.14698 0.16748-0.02051 0-0.27343-0.18115-0.24951-0.18457-0.46143-0.33838-1.11768-0.86816-1.89014-1.81836-0.14014-0.19482-0.2666-0.36914-0.12305-0.17773-0.12304-0.1914 0-0.01367 0.12646-0.05469 0.23584-0.09912 0.56397-0.24609 0.33154-0.14697 0.458-0.23243 0.75537-0.41699 1.09034-0.97754 0.15381-0.28027 0.229-0.6289 0.07861-0.35205 0.05127-0.70069-0.08545-0.85449-0.71436-1.46972-0.37939-0.36572-0.86816-0.53321-0.48877-0.16748-1.02197-0.11279z m0.64599 1.20313q0.23584 0.08545 0.4375 0.29052 0.20508 0.20166 0.3042 0.46827 0.04102 0.14014 0.04102 0.34863 0 0.2085-0.01367 0.29394-0.07178 0.2666-0.2837 0.47852-0.2085 0.2085-0.61181 0.40332-0.14014 0.06836-0.58106 0.25293-0.44092 0.18115-0.458 0.16748-0.01367-0.01367-0.15381-0.41357-0.13672-0.3999-0.18799-0.81006-0.04785-0.41357 0.00683-0.65283 0.08545-0.30762 0.30762-0.52979 0.22559-0.22559 0.51953-0.31104 0.12646-0.02734 0.32813-0.02734 0.20508 0 0.34521 0.04102z m-1.48681 4.48095q0.82715 1.2168 2.18408 2.32422 0.14014 0.11279 0.44092 0.34522 0.30078 0.229 0.37256 0.28369 0.04102 0.03076 0.03418 0.0376-0.00684 0.00683-0.18799 0.10254l-0.2666 0.1538q-0.48877 0.22559-1.07666 0.33838-0.22559 0.02734-0.54004 0.04102-0.31445 0.01367-0.48194-0.02735-0.60498-0.09912-1.05273-0.51953-0.72803-0.70068-0.62891-1.72265 0.04102-0.51611 0.25635-0.87158 0.21875-0.35889 0.65283-0.63916l0.12647-0.08545 0.16748 0.23925z" fill="#1A1A1A"></path>
          </svg>
<svg viewBox="0 0 13.99993896484375 14" preserveAspectRatio="xMidYMid meet" xmlns="http://www.w3.org/2000/svg" x="55.25" y="46.3125" width="42.25" height="42.25" overflow="visible">
            <path d="M2.70361 1.76367q-0.19824 0.04102-0.40673 0.16748-0.09912 0.05811-0.23243 0.20508-0.1333 0.14697-0.18799 0.24268-0.08545 0.18457-0.09912 0.31787-0.01367 0.12988-0.01367 0.7622l0 0.76905 0.04102 0.09912q0.04443 0.08203 0.11279 0.16064 0.07178 0.0752 0.14014 0.1128 0.07178 0.03418 0.18115 0.04785 0.22559 0.04102 0.42041-0.09229 0.19824-0.1333 0.25293-0.36914 0.01367-0.09912 0.01367-0.68701l0-0.57422 3.5 0 0 8.14844-0.57422 0q-0.57422 0-0.68701 0.02734-0.19482 0.02734-0.33496 0.16748-0.2085 0.21191-0.15381 0.50586 0.05469 0.29395 0.32129 0.42041l0.09912 0.04102 3.80762 0 0.09912-0.04102q0.2666-0.12646 0.32129-0.42041 0.05469-0.29395-0.15381-0.50586-0.14014-0.14014-0.33496-0.16748-0.11279-0.02734-0.68701-0.02734l-0.57422 0 0-8.14844 3.5 0 0 0.57422q0 0.58789 0.02734 0.68701 0.04102 0.23584 0.23584 0.36914 0.19824 0.1333 0.42383 0.09229 0.10938-0.01367 0.17773-0.04785 0.07178-0.0376 0.14014-0.1128 0.07178-0.07861 0.11621-0.16064l0.04102-0.09912 0.01367-0.70069q0-0.56055-0.01367-0.72802-0.01367-0.16748-0.07178-0.30762-0.0957-0.23926-0.30078-0.42725-0.20166-0.18799-0.45459-0.27343-0.06836-0.02734-0.66992-0.02735l-3.68457-0.01367q-4.26904 0-4.35108 0.01367z" fill="#0066FF"></path>
          </svg>
<svg viewBox="0 0 13.99993896484375 14" preserveAspectRatio="xMidYMid meet" xmlns="http://www.w3.org/2000/svg" x="65.8125" y="17.0625" width="26" height="26" overflow="visible">
            <path d="M3.94775 3.51367q-0.19482 0.05469-0.32812 0.23242-0.1333 0.17432-0.11963 0.36914l0 0.04444q0.01367 0.0957 0.08545 0.19482 0.10938 0.15381 0.54346 0.58789l4.36816 4.38184-2.19775 0q-2.19775 0-2.31055 0.02734-0.24951 0.02734-0.38281 0.23242-0.1333 0.20166-0.09912 0.43409 0.03418 0.229 0.24609 0.36914l0.02734 0.02734q0.05469 0.04443 0.18116 0.05811 0.15381 0.01367 0.68701 0.02734l5.37646 0 0.0957-0.04102q0.11279-0.02734 0.21192-0.12646 0.09912-0.09912 0.12646-0.21192l0.04102-0.0957 0-5.36279q-0.01367-0.54688-0.02734-0.70068-0.01367-0.11279-0.05811-0.18116l-0.01367-0.02734q-0.16748-0.23926-0.48877-0.23926-0.14014 0-0.23242 0.04444-0.08887 0.04102-0.16748 0.11279-0.0752 0.06836-0.1128 0.14697-0.03418 0.0752-0.04785 0.18457-0.01367 0.15723-0.02734 0.646l0 3.84863-2.45068-2.45068q-1.63721-1.63721-2.06446-2.04737-0.42725-0.41357-0.49902-0.44091-0.06836-0.03076-0.18115-0.04444-0.10938-0.01367-0.18116 0z" fill="#0066FF"></path>
          </svg>
<g fill="rgb(26, 26, 26)"><path d="M579 -22Q425 -22 313 34Q201 90 141 184Q81 278 81 393Q81 483 116.5 551Q152 619 215.5 676.5Q279 734 362 791L646 979Q677 999 702 1024.5Q727 1050 741.5 1079.5Q756 1109 756 1143Q756 1194 720 1230Q684 1266 617 1266Q573 1266 540 1249Q507 1232 489 1201Q471 1170 471 1128Q471 1079 495.5 1030.5Q520 982 563 929Q606 876 662 811L1367 0L1051 0L464 657Q403 728 345 800Q287 872 249 953.5Q211 1035 211 1131Q211 1238 261.5 1323.5Q312 1409 403 1458.5Q494 1508 615 1508Q734 1508 820 1460.5Q906 1413 953 1333.5Q1000 1254 1000 1157Q1000 1088 975.5 1027Q951 966 907 914Q863 862 802 817L498 598Q437 553 405.5 508.5Q374 464 374 405Q374 349 401 307Q428 265 476 242.5Q524 220 588 220Q670 220 747.5 256Q825 292 888.5 358.5Q952 425 989.5 517.5Q1027 610 1027 722L1278 722Q1278 584 1248 475.5Q1218 367 1166 288Q1114 209 1048 159L971 109Q889 42 784 10Q679 -22 579 -22Z" transform="translate(15.29688 75) scale(0.0043642578125 -0.0043642578125)"/><path d="M428 1490L428 0L128 0L128 1490Z" transform="translate(21.30209 75) scale(0.0043642578125 -0.0043642578125)"/><path d="M683 1118L683 889L20 889L20 1118ZM174 1384L474 1384L474 327Q474 274 497.5 248.5Q521 223 576 223Q593 223 624 227.5Q655 232 671 236L714 11Q664 -4 614.5 -10Q565 -16 520 -16Q352 -16 263 66Q174 148 174 301Z" transform="translate(23.85518 75) scale(0.0043642578125 -0.0043642578125)"/><path d="M119 -395L207 225L507 225L323 -395ZM360 723Q287 723 237 772.5Q187 822 187 895Q187 968 237 1017.5Q287 1067 360 1067Q433 1067 483 1017.5Q533 968 533 895Q533 822 483 772.5Q433 723 360 723Z" transform="translate(27.12838 75) scale(0.0043642578125 -0.0043642578125)"/></g>
<g fill="rgb(0, 102, 255)"><path d="M166 471L166 718L1185 1172L1185 883L483 597L492 613L492 577L483 591L1185 306L1185 19Z" transform="translate(73.0625 100.1875) scale(0.0047607421875 -0.0047607421875)"/></g>
</svg>
