<svg xmlns="http://www.w3.org/2000/svg" width="104" height="88" viewBox="0 0 104 88" role="img"><title>json-escape</title>
<svg viewBox="0 0 24 24" preserveAspectRatio="none" xmlns="http://www.w3.org/2000/svg" x="8" y="8" width="72" height="72" overflow="visible">
          <path d="M8 3H7a2 2 0 0 0-2 2v5a2 2 0 0 1-2 2 2 2 0 0 1 2 2v5c0 1.1.9 2 2 2h1 M19 10.6736V5a2 2 0 0 0-2-2h-1" fill="none" stroke="#0066FF" stroke-width="2" stroke-linecap="round" stroke-linejoin="round"></path>
        </svg>
<svg viewBox="0 0 13.99993896484375 14" preserveAspectRatio="xMidYMid meet" xmlns="http://www.w3.org/2000/svg" x="53" y="53" width="22" height="22" overflow="visible">
            <path d="M8.59619 1.18945q-0.11279 0.02734-0.21875 0.11963-0.10254 0.09229-0.15381 0.18457-0.04785 0.08887-0.04785 0.25635 0 0.16748 0.04102 0.24609 0.04443 0.0752 0.12646 0.16065 0.08545 0.08203 0.15381 0.12646l0.08545 0.04102 2.63183 0.01367 0.09913 0.04102q0.2085 0.09912 0.30761 0.30761l0.04102 0.09912 0 8.42871-0.04102 0.09913q-0.08545 0.16748-0.22558 0.26318l-0.01367 0q-0.06836 0.05811-0.14698 0.07178-0.0752 0.01367-0.34179 0.01367l-2.31055 0.01367-0.08545 0.05469q-0.18115 0.09912-0.28027 0.2666-0.04102 0.08545-0.04102 0.25293 0 0.16748 0.04102 0.24609 0.04443 0.0752 0.12646 0.16065 0.08545 0.08203 0.15381 0.12646l0.08545 0.04102 2.60449-0.01367q0.23584 0 0.30762-0.02735 0.48877-0.14014 0.81689-0.46826 0.33154-0.33154 0.47168-0.82031 0.02734-0.08545 0.02735-0.71436l0.01367-3.78027-0.01367-3.78027q0-0.62891-0.02735-0.71436-0.12646-0.48877-0.458-0.81689-0.32813-0.33154-0.80323-0.47168l-0.14013-0.04102-1.37061 0q-1.37402 0-1.41504 0.01367z m-2.89844 2.32422q-0.19482 0.05469-0.32812 0.23242-0.1333 0.17432-0.11963 0.36914l0 0.01368q0.01367 0.12646 0.05469 0.19824 0.05811 0.0957 0.2666 0.32129l1.76367 1.77734-5.75244 0-0.08545 0.05469q-0.18115 0.09912-0.28027 0.2666-0.04102 0.08545-0.04102 0.25293 0 0.16748 0.04102 0.24609 0.04443 0.0752 0.12646 0.16065 0.08545 0.08203 0.15381 0.12646l0.08545 0.04102 5.75244 0-0.99463 0.99463q-0.65625 0.66992-0.83056 0.85449-0.17432 0.18115-0.20508 0.24951-0.10938 0.23926-0.01367 0.46485 0.09912 0.22217 0.32128 0.32128 0.22559 0.0957 0.46485-0.01367 0.06836-0.04443 0.33496-0.29394 0.2666-0.25293 1.30225-1.28858 1.52441-1.52783 1.56884-1.59619 0.02734-0.05811 0.03418-0.10596 0.00684-0.04785 0.00684-0.16064 0-0.11279-0.00684-0.16064-0.00684-0.04785-0.03418-0.10596-0.04443-0.06836-1.56884-1.59619-1.0083-1.02197-1.28858-1.27832-0.28027-0.25977-0.35205-0.29395-0.06836-0.0376-0.18115-0.05127-0.10938-0.01367-0.19483 0z" fill="#1A1A1A"></path>
          </svg>
</svg>
