<svg xmlns="http://www.w3.org/2000/svg" width="104" height="104" viewBox="0 0 104 104" role="img"><title>json-to-typescript</title>
<svg viewBox="0 0 13.99993896484375 14" preserveAspectRatio="xMidYMid meet" xmlns="http://www.w3.org/2000/svg" x="4.0625" y="5.6875" width="52.8125" height="52.8125" overflow="visible">
            <path d="M3.72559 1.20313q-0.50586 0.11279-0.87159 0.47167-0.3623 0.35547-0.48877 0.88868-0.01367 0.08203-0.02734 0.3623l-0.01367 3.06592-0.04102 0.08545q-0.09912 0.19482-0.29394 0.28027-0.08545 0.04102-0.25293 0.06836-0.25293 0.02734-0.39307 0.16748-0.0957 0.09912-0.1333 0.18457-0.03418 0.08203-0.03418 0.22217 0 0.14014 0.03418 0.22559 0.0376 0.08203 0.12647 0.17431 0.09229 0.08887 0.17431 0.12647 0.08545 0.03418 0.25977 0.06152 0.17432 0.02734 0.24267 0.06494 0.07178 0.03418 0.14698 0.11279 0.07861 0.0752 0.12304 0.15723l0.04102 0.08545 0.01367 3.06592q0.01367 0.28027 0.02734 0.3623 0.11279 0.46484 0.42041 0.81348 0.30762 0.34863 0.7417 0.48877 0.16748 0.0581 0.31446 0.07178 0.14697 0.01367 0.49902 0.01367 0.30762 0 0.38281-0.00684 0.07861-0.00684 0.14698-0.02051 0.21191-0.08545 0.3247-0.29394 0.04102-0.09912 0.04102-0.25293 0-0.15381-0.04102-0.25293-0.09912-0.19482-0.29394-0.28027-0.05811-0.02734-0.13672-0.03418-0.0752-0.00684-0.36914-0.00684-0.43408-0.01367-0.51953-0.04785-0.08203-0.0376-0.18799-0.12647-0.10254-0.09229-0.1333-0.18798l-0.04102-0.08545-0.02734-3.34619-0.04102-0.16748q-0.09912-0.32129-0.28027-0.57422l-0.09912-0.14014 0.09912-0.14014q0.18115-0.25293 0.28027-0.57422l0.04102-0.16748 0.02734-3.34619 0.04102-0.09912q0.12646-0.28027 0.43408-0.32129 0.11279-0.02734 0.44775-0.02734 0.22559 0 0.30078-0.00684 0.07861-0.00684 0.13331-0.02051 0.21191-0.08545 0.3247-0.29394 0.04102-0.09912 0.04102-0.25293 0-0.09912-0.00684-0.14014-0.00684-0.04102-0.03418-0.11279-0.04443-0.08203-0.13672-0.16406-0.08887-0.08545-0.18798-0.12989-0.06836-0.01367-0.15381-0.0205-0.08203-0.00684-0.38965-0.00684-0.44775 0-0.60156 0.02734z m5.4038-0.00001q-0.09912 0.04443-0.1914 0.12989-0.08887 0.08203-0.12647 0.16064-0.03418 0.0752-0.04101 0.11621-0.00684 0.04102-0.00684 0.14014 0 0.15381 0.04102 0.25293 0.11279 0.2085 0.3247 0.29395 0.05469 0.01367 0.12989 0.0205 0.07861 0.00684 0.3042 0.00684 0.27686 0 0.41699 0.02051 0.14014 0.02051 0.21191 0.06494 0.16748 0.0957 0.25293 0.26318l0.04102 0.09912 0.02734 3.34619 0.04102 0.16748q0.09912 0.32129 0.28027 0.5879l0.09912 0.12646-0.08545 0.12646q-0.10938 0.14014-0.17431 0.28028-0.06152 0.14014-0.1333 0.34863-0.02734 0.09912-0.02735 0.33496l-0.02734 3.1377-0.04102 0.09912q-0.04443 0.08203-0.11621 0.16064-0.06836 0.0752-0.13672 0.11963-0.14014 0.06836-0.61523 0.06836-0.23926 0-0.31104 0.00684-0.06836 0.00684-0.13672 0.02051-0.09912 0.04443-0.1914 0.12988-0.08887 0.08203-0.1333 0.16406-0.02734 0.07178-0.03418 0.11279-0.00684 0.04102-0.00684 0.14014 0 0.15381 0.04102 0.25293 0.11279 0.2085 0.3247 0.29395 0.06836 0.02734 0.1504 0.02734 0.08545 0 0.44775 0 0.36572 0 0.45459-0.01367 0.09229-0.01367 0.20508-0.04102 0.4751-0.14014 0.80322-0.48877 0.33154-0.35205 0.44434-0.84424 0.01367-0.08203 0.02734-0.3623l0.01367-3.06592 0.04102-0.08545q0.04443-0.08203 0.11963-0.15722 0.07861-0.07861 0.14697-0.1128 0.07178-0.0376 0.24609-0.06494 0.17432-0.02734 0.25635-0.06152 0.08545-0.0376 0.17432-0.12647 0.09228-0.09229 0.12646-0.17431 0.0376-0.08545 0.0376-0.22559 0-0.14014-0.0376-0.22217-0.03418-0.08545-0.12988-0.18457-0.14014-0.14014-0.39307-0.16748-0.16748-0.02734-0.25293-0.06836-0.19482-0.08545-0.29394-0.28027l-0.04102-0.08545-0.01367-3.06592q-0.01367-0.28027-0.02734-0.3623-0.11279-0.44775-0.39307-0.77588-0.28027-0.33154-0.68701-0.49903-0.18115-0.07178-0.34864-0.09228-0.16748-0.02051-0.54687-0.02051-0.30762 0-0.39307 0.00684-0.08203 0.00684-0.13672 0.02051z" fill="#1A1A1A"></path>
          </svg>
<svg viewBox="0 0 13.99993896484375 14" preserveAspectRatio="xMidYMid meet" xmlns="http://www.w3.org/2000/svg" x="55.25" y="46.3125" width="42.25" height="42.25" overflow="visible">
            <path d="M3.33252 0.60156q-0.58789 0.04102-1.02197 0.44776-0.43408 0.40674-0.53321 0.99463-0.02734 0.16748-0.02734 4.95605 0 4.78857 0.02734 4.95605 0.09912 0.5332 0.46827 0.92627 0.37256 0.38965 0.90576 0.50245 0.10938 0.01367 0.66992 0.02734l3.17871 0 3.17871 0q0.56055-0.01367 0.66992-0.02734 0.5332-0.11279 0.90235-0.50245 0.37256-0.39307 0.47168-0.92627 0.02734-0.16748 0.02734-3.80078 0-3.6333-0.02734-3.80078-0.08545-0.51953-0.40674-0.92285-0.11279-0.14014-1.24756-1.2749-0.89551-0.88184-1.10742-1.06983-0.2085-0.19141-0.41699-0.29052-0.30762-0.15381-0.67334-0.19483-0.14014-0.02734-2.4917-0.02734-2.35156 0-2.54639 0.02734z m4.25537 2.42334l0 1.27149 0.04102 0.14013q0.08545 0.22559 0.24609 0.40674 0.16064 0.18115 0.35547 0.28028 0.14014 0.07178 0.22558 0.08544 0.12646 0.02734 0.40674 0.04102l2.21143 0 0 6.11816q0 0.43408-0.0376 0.51954-0.03418 0.08203-0.11963 0.17431-0.08203 0.08887-0.16406 0.1333l-0.09912 0.04102-7.30762 0-0.09912-0.04102q-0.08203-0.04443-0.16748-0.1333-0.08203-0.09228-0.11963-0.17431-0.03418-0.08545-0.03418-0.70069l0-4.18701 0-4.18701q0-0.61523 0.02734-0.6836 0.05811-0.12646 0.16749-0.23242 0.11279-0.10596 0.23925-0.1333 0.08545-0.01367 2.14307-0.01367l2.07129 0 0.01367 1.2749z m2.21143 0.01367l1.03564 1.03565-2.08496 0 0-1.03565q0-1.03564 0-1.04931l1.04932 1.04931z m-4.07422 3.68116q-0.18115 0.04102-0.30762 0.17431-0.12646 0.1333-0.68701 0.84766-0.55713 0.71436-0.60156 0.78271-0.04102 0.09912-0.04102 0.22559 0 0.12646 0.04102 0.22559 0.04443 0.06836 0.60156 0.78271 0.56055 0.71436 0.68701 0.85449 0.18115 0.18115 0.42725 0.18116 0.24609 0 0.41357-0.19483 0.12646-0.12646 0.15381-0.30078 0.02734-0.17774-0.04102-0.31787-0.05811-0.0957-0.49902-0.65625-0.44092-0.56055-0.44092-0.57422 0-0.01367 0.44092-0.57422 0.44092-0.56055 0.48877-0.64941 0.05127-0.09229 0.05127-0.21192 0-0.11963-0.02734-0.229-0.07178-0.18457-0.26661-0.29395-0.19482-0.11279-0.39306-0.07177z m2.33789 0q-0.14014 0.02734-0.2666 0.1333-0.12305 0.10596-0.16748 0.22558-0.04102 0.11621-0.04102 0.23584 0 0.11963 0.04785 0.21192 0.05127 0.08887 0.49219 0.64941 0.44092 0.56055 0.44092 0.57422 0 0.01367-0.44092 0.57422-0.44092 0.56055-0.49902 0.65625-0.06836 0.14014-0.04102 0.31787 0.02734 0.17432 0.15381 0.30078 0.16748 0.19482 0.41357 0.19483 0.24609 0 0.42725-0.18116 0.12646-0.14014 0.68359-0.85449 0.56055-0.71436 0.60498-0.78271 0.04102-0.09912 0.04102-0.22559 0-0.12646-0.04443-0.22217-0.04102-0.09912-0.62891-0.82715l-0.57422-0.71435q-0.10938-0.12646-0.18115-0.18115-0.06836-0.05811-0.18799-0.07862-0.11963-0.02051-0.23242-0.00683z" fill="#0066FF"></path>
          </svg>
<svg viewBox="0 0 13.99993896484375 14" preserveAspectRatio="xMidYMid meet" xmlns="http://www.w3.org/2000/svg" x="65.8125" y="17.0625" width="26" height="26" overflow="visible">
            <path d="M3.94775 3.51367q-0.19482 0.05469-0.32812 0.23242-0.1333 0.17432-0.11963 0.36914l0 0.04444q0.01367 0.0957 0.08545 0.19482 0.10938 0.15381 0.54346 0.58789l4.36816 4.38184-2.19775 0q-2.19775 0-2.31055 0.02734-0.24951 0.02734-0.38281 0.23242-0.1333 0.20166-0.09912 0.43409 0.03418 0.229 0.24609 0.36914l0.02734 0.02734q0.05469 0.04443 0.18116 0.05811 0.15381 0.01367 0.68701 0.02734l5.37646 0 0.0957-0.04102q0.11279-0.02734 0.21192-0.12646 0.09912-0.09912 0.12646-0.21192l0.04102-0.0957 0-5.36279q-0.01367-0.54688-0.02734-0.70068-0.01367-0.11279-0.05811-0.18116l-0.01367-0.02734q-0.16748-0.23926-0.48877-0.23926-0.14014 0-0.23242 0.04444-0.08887 0.04102-0.16748 0.11279-0.0752 0.06836-0.1128 0.14697-0.03418 0.0752-0.04785 0.18457-0.01367 0.15723-0.02734 0.646l0 3.84863-2.45068-2.45068q-1.63721-1.63721-2.06446-2.04737-0.42725-0.41357-0.49902-0.44091-0.06836-0.03076-0.18115-0.04444-0.10938-0.01367-0.18116 0z" fill="#0066FF"></path>
          </svg>
<g fill="rgb(26, 26, 26)"><path d="M567 -20Q335 -20 201.5 101.5Q68 223 68 448L68 535L373 535L373 443Q373 336 425.5 281Q478 226 567 226Q656 226 708 281Q760 336 760 444L760 1490L1062 1490L1062 449Q1062 223 930 101.5Q798 -20 567 -20Z" transform="translate(10.35938 75) scale(0.0043642578125 -0.0043642578125)"/><path d="M681 -22Q502 -22 369.5 33Q237 88 163 196Q89 304 85 462L382 462Q388 387 427 336.5Q466 286 531 261Q596 236 678 236Q760 236 820.5 259.5Q881 283 915 326Q949 369 949 426Q949 477 918.5 511.5Q888 546 831 571Q774 596 692 615L528 656Q339 702 232 800.5Q125 899 125 1061Q125 1196 197.5 1297Q270 1398 396.5 1454Q523 1510 685 1510Q850 1510 973 1453.5Q1096 1397 1165 1296.5Q1234 1196 1236 1065L941 1065Q933 1155 864.5 1204Q796 1253 682 1253Q605 1253 550 1231Q495 1209 466.5 1170Q438 1131 438 1081Q438 1026 471 989.5Q504 953 559 930.5Q614 908 676 893L811 860Q905 839 986 803Q1067 767 1128 714.5Q1189 662 1222.5 590Q1256 518 1256 424Q1256 289 1188 188.5Q1120 88 991 33Q862 -22 681 -22Z" transform="translate(15.58339 75) scale(0.0043642578125 -0.0043642578125)"/><path d="M789 -20Q592 -20 434.5 70Q277 160 185.5 331Q94 502 94 744Q94 987 185.5 1158.5Q277 1330 434.5 1420Q592 1510 789 1510Q987 1510 1144 1420Q1301 1330 1392.5 1158.5Q1484 987 1484 744Q1484 502 1392.5 331Q1301 160 1144 70Q987 -20 789 -20ZM789 251Q905 251 991.5 307.5Q1078 364 1126 474.5Q1174 585 1174 744Q1174 905 1126 1015.5Q1078 1126 991.5 1182.5Q905 1239 789 1239Q674 1239 587 1182Q500 1125 452 1014.5Q404 904 404 744Q404 585 452 475Q500 365 587 308Q674 251 789 251Z" transform="translate(21.43586 75) scale(0.0043642578125 -0.0043642578125)"/><path d="M135 0L135 1490L475 1490L946 736Q982 678 1019 610Q1056 542 1094.5 459Q1133 376 1171 272L1140 272Q1133 355 1127.5 449Q1122 543 1118 629Q1114 715 1114 775L1114 1490L1426 1490L1426 0L1085 0L657 684Q610 761 570 833.5Q530 906 486.5 993.5Q443 1081 383 1203L422 1203Q428 1095 434 996Q440 897 443.5 816.5Q447 736 447 685L447 0Z" transform="translate(28.32266 75) scale(0.0043642578125 -0.0043642578125)"/></g>
<g fill="rgb(0, 102, 255)"><path d="M75 1237L75 1490L1292 1490L1292 1237L837 1237L837 0L531 0L531 1237Z" transform="translate(69.95313 100.1875) scale(0.0047607421875 -0.0047607421875)"/><path d="M681 -22Q502 -22 369.5 33Q237 88 163 196Q89 304 85 462L382 462Q388 387 427 336.5Q466 286 531 261Q596 236 678 236Q760 236 820.5 259.5Q881 283 915 326Q949 369 949 426Q949 477 918.5 511.5Q888 546 831 571Q774 596 692 615L528 656Q339 702 232 800.5Q125 899 125 1061Q125 1196 197.5 1297Q270 1398 396.5 1454Q523 1510 685 1510Q850 1510 973 1453.5Q1096 1397 1165 1296.5Q1234 1196 1236 1065L941 1065Q933 1155 864.5 1204Q796 1253 682 1253Q605 1253 550 1231Q495 1209 466.5 1170Q438 1131 438 1081Q438 1026 471 989.5Q504 953 559 930.5Q614 908 676 893L811 860Q905 839 986 803Q1067 767 1128 714.5Q1189 662 1222.5 590Q1256 518 1256 424Q1256 289 1188 188.5Q1120 88 991 33Q862 -22 681 -22Z" transform="translate(76.40869 100.1875) scale(0.0047607421875 -0.0047607421875)"/></g>
</svg>
