<svg xmlns="http://www.w3.org/2000/svg" width="104" height="88" viewBox="0 0 104 88" role="img"><title>resize-pdf-pages</title>
<svg viewBox="0 0 24 24" preserveAspectRatio="none" xmlns="http://www.w3.org/2000/svg" x="8" y="8" width="72" height="72" overflow="visible">
          <path d="M11.39419 22.00000L6.00000 22.00000L5.65270 21.96962L5.39859 21.90743L5.15476 21.81262L4.92540 21.68678L4.71442 21.53209L4.52545 21.35118L4.36170 21.14715L4.22598 20.92350L4.12061 20.68404L4.03038 20.34730L4.00000 20.00000L4.00000 4.00000L4.03038 3.65270L4.12061 3.31596L4.26795 3.00000L4.41329 2.78248L4.58579 2.58579L4.71442 2.46791L4.92540 2.31322L5.07650 2.22598L5.31596 2.12061L5.48236 2.06815L5.73895 2.01711L5.91276 2.00190L14.09464 2.00171L14.37711 2.02919L14.56277 2.06598L14.83439 2.14827L15.09439 2.26205L15.41674 2.45993L15.70400 2.70600L19.29200 6.29400L19.53874 6.58143L19.69239 6.82055L19.77864 6.98934L19.88238 7.25397L19.95411 7.52900L19.99282 7.81059L20.00000 10.77856 M14.00000 2.00000L14.00197 7.06279L14.03142 7.24869L14.09517 7.42578L14.19098 7.58779L14.31545 7.72897L14.46417 7.84433L14.63188 7.92978L14.81262 7.98229L14.93721 7.99803L20.00000 8.00000 M10.00000 9.00000L8.00000 9.00000 M13.01964 13.00000L8.00000 13.00000 M10.84220 17.00000L8.00000 17.00000" fill="none" stroke="#0066FF" stroke-width="2" stroke-linecap="round" stroke-linejoin="round"></path>
        </svg>
<svg viewBox="0 0 13.99993896484375 14" preserveAspectRatio="xMidYMid meet" xmlns="http://www.w3.org/2000/svg" x="53" y="53" width="22" height="22" overflow="visible">
            <path d="M2.60449 1.20313q-0.50586 0.08545-0.87842 0.43749-0.36914 0.34863-0.50927 0.86475-0.02734 0.08545-0.02735 0.71436l-0.01367 3.78027 0.01367 3.78027q0 0.62891 0.02735 0.71436 0.14014 0.48877 0.46826 0.82031 0.33154 0.32813 0.82031 0.46826 0.08545 0.02734 0.71436 0.02735l3.78027 0.01367 3.78027-0.01367q0.62891 0 0.71436-0.02735 0.48877-0.14014 0.81689-0.46826 0.33154-0.33154 0.47168-0.82031 0.02734-0.08545 0.02735-0.42041l0.01367-4.2417-0.04102-0.08545q-0.09912-0.16748-0.28027-0.2666-0.05811-0.02734-0.09912-0.04102-0.04102-0.01367-0.15381-0.01367-0.11279 0-0.15381 0.01367-0.04101 0.01367-0.09912 0.04102-0.18115 0.09912-0.28027 0.2666l-0.04102 0.08545-0.01367 4.38183-0.04102 0.09913q-0.14014 0.27685-0.43408 0.33496-0.09912 0.02734-4.18701 0.02734-4.08789 0-4.18701-0.02734-0.29395-0.05811-0.43408-0.33496l-0.04102-0.09913 0-8.42871 0.04102-0.09912q0.09912-0.2085 0.30761-0.30761l0.09912-0.04102 4.38184-0.01367 0.08545-0.04102q0.06836-0.04443 0.15039-0.12646 0.08545-0.08545 0.12647-0.16065 0.04443-0.07861 0.04443-0.24609 0-0.16748-0.04102-0.25293-0.09912-0.16748-0.28027-0.2666l-0.08545-0.05469-2.2251 0q-2.2251 0-2.33789 0.02735z m6.5249-0.00001q-0.09912 0.04443-0.1914 0.12989-0.08887 0.08203-0.1333 0.17431-0.04102 0.08887-0.04785 0.23584-0.00684 0.14697 0.03418 0.23926 0.04443 0.08887 0.12646 0.17432 0.08545 0.08203 0.16065 0.11963 0.07861 0.03418 0.18798 0.04101 0.11279 0.00684 0.73145 0.00684l0.8374 0.01367-5.01074 4.99707 0-0.79639q0-0.58789 0-0.71435 0-0.12646-0.02734-0.19483-0.08545-0.21191-0.29395-0.3247-0.07178-0.02734-0.11279-0.03418-0.04102-0.00684-0.14014-0.00684-0.15381 0-0.25293 0.04102-0.2085 0.11279-0.29394 0.3247l-0.02735 0.09571 0 3.20605 0.04102 0.08545q0.04443 0.06836 0.11963 0.14697 0.07861 0.0752 0.14697 0.11963l0.08545 0.04102 3.20605 0 0.09571-0.02734q0.21191-0.08545 0.3247-0.29395 0.04102-0.09912 0.04102-0.25293 0-0.09912-0.00684-0.14014-0.00684-0.04102-0.03418-0.11279-0.04443-0.08203-0.13672-0.16406-0.08887-0.08545-0.17431-0.11963-0.08203-0.0376-0.2085-0.0376-0.12646 0-0.71435 0l-0.79639 0 4.99707-5.01074 0.01367 0.8374q0 0.61865 0.00684 0.73145 0.00684 0.10938 0.04101 0.18799 0.0376 0.0752 0.11963 0.16064 0.08545 0.08203 0.17432 0.12646 0.09229 0.04102 0.23926 0.03418 0.14697-0.00684 0.24609-0.04785 0.2085-0.11279 0.29395-0.3247l0.02734-0.09571 0-3.20605-0.04102-0.08545q-0.04443-0.06836-0.12304-0.14356-0.0752-0.07861-0.14356-0.12304l-0.08545-0.04102-3.00781 0q-0.23926 0.01367-0.29395 0.02735z" fill="#1A1A1A"></path>
          </svg>
<g fill="rgb(26, 26, 26)"><path d="M95 0L95 810L438 810Q563 810 636 740.5Q709 671 709 552Q709 434 635.5 364Q562 294 438 294L260 294L260 0ZM260 441L428 441Q481 441 512 471Q543 501 543 552Q543 603 512 633Q481 663 428 663L260 663Z" transform="translate(64.67188 9) scale(0.008333333333333333 -0.008333333333333333)"/><path d="M95 0L95 810L379 810Q501 810 590.5 761Q680 712 730 621Q780 530 780 405Q780 281 730 190Q680 99 590 49.5Q500 0 379 0ZM260 144L379 144Q455 144 507 177Q559 210 586.5 268.5Q614 327 614 405Q614 522 553 594Q492 666 379 666L260 666Z" transform="translate(70.88854 9) scale(0.008333333333333333 -0.008333333333333333)"/><path d="M260 0L95 0L95 810L626 810L626 662L260 662L260 482L595 482L595 334L260 334Z" transform="translate(77.83854 9) scale(0.008333333333333333 -0.008333333333333333)"/></g>
</svg>
