<svg xmlns="http://www.w3.org/2000/svg" width="104" height="88" viewBox="0 0 104 88" role="img"><title>sitemap-generator</title>
<svg viewBox="0 0 24 24" preserveAspectRatio="none" xmlns="http://www.w3.org/2000/svg" x="8" y="8" width="72" height="72" overflow="visible">
          <path d="M3.00000 16.00000L7.06279 16.00197L7.30902 16.04894L7.48175 16.12369L7.63742 16.22949L7.77051 16.36258L7.87631 16.51825L7.92978 16.63188L7.98229 16.81262L7.99803 16.93721L8.00000 21.00000L7.96858 21.24869L7.90483 21.42578L7.77051 21.63742L7.63742 21.77051L7.48175 21.87631L7.36812 21.92978L7.18738 21.98229L7.06279 21.99803L3.00000 22.00000L2.75131 21.96858L2.57422 21.90483L2.41221 21.80902L2.22949 21.63742L2.15567 21.53583L2.07022 21.36812L2.01771 21.18738L2.00197 21.06279L2.00789 16.87467L2.04894 16.69098L2.12369 16.51825L2.19098 16.41221L2.31545 16.27103L2.46417 16.15567L2.63188 16.07022L2.81262 16.01771L3.00000 16.00000Z M10.00000 2.00000L14.06279 2.00197L14.30902 2.04894L14.48175 2.12369L14.63742 2.22949L14.77051 2.36258L14.87631 2.51825L14.92978 2.63188L14.98229 2.81262L14.99803 2.93721L15.00000 7.00000L14.98229 7.18738L14.90483 7.42578L14.77051 7.63742L14.63742 7.77051L14.53583 7.84433L14.36812 7.92978L14.18738 7.98229L14.06279 7.99803L10.00000 8.00000L9.81262 7.98229L9.57422 7.90483L9.41221 7.80902L9.22949 7.63742L9.12369 7.48175L9.07022 7.36812L9.01771 7.18738L9.00197 7.06279L9.00789 2.87467L9.04894 2.69098L9.12369 2.51825L9.22949 2.36258L9.36258 2.22949L9.51825 2.12369L9.69098 2.04894L9.87467 2.00789L10.00000 2.00000Z M5.00000 16.00000L5.00000 13.00000L5.01771 12.81262L5.09517 12.57422L5.22949 12.36258L5.41221 12.19098L5.63188 12.07022L5.81262 12.01771L6.00000 12.00000L14.24450 12.00000 M12.00000 12.00000L12.00000 8.00000" fill="none" stroke="#0066FF" stroke-width="2" stroke-linecap="round" stroke-linejoin="round"></path>
        </svg>
<svg viewBox="0 0 13.99993896484375 14" preserveAspectRatio="xMidYMid meet" xmlns="http://www.w3.org/2000/svg" x="53" y="53" width="22" height="22" overflow="visible">
            <path d="M5.08252 1.31592q-0.16748 0.01367-0.28027 0.05469-0.15381 0.04443-0.48877 0.21191l-1.1211 0.54687q-1.46973 0.7417-1.56884 0.81006-0.2666 0.19824-0.39307 0.54688l-0.05469 0.12646 0 7.04102q0 0.67334 0.02735 0.88184 0.01367 0.14014 0.07177 0.23925l0.02735 0.05469q0.2085 0.43408 0.68701 0.58789 0.12305 0.04102 0.31103 0.05127 0.19141 0.00684 0.31787-0.02734 0.12646-0.0376 1.30225-0.62549l1.18945-0.58789 0.28028 0 1.35693 0.67334q1.36035 0.68359 1.51416 0.72803 0.48877 0.14014 0.97754 0 0.15381-0.04443 1.59619-0.77247 0.95361-0.4751 1.22705-0.61523 0.27344-0.14014 0.35547-0.2085 0.30762-0.25293 0.39307-0.65966 0.01367-0.06836 0.01367-3.9375 0-3.87256-0.01367-3.95801-0.04102-0.23926-0.18115-0.44092-0.14014-0.20166-0.35206-0.32813-0.15381-0.09912-0.34179-0.14697-0.18799-0.05127-0.34522-0.0376-0.18115 0.03076-0.36914 0.11622-0.18799 0.08203-1.08691 0.51611-1.18945 0.58789-1.28858 0.6084-0.0957 0.02051-0.19482 0-0.0957-0.02051-1.45606-0.69385-1.04932-0.51611-1.29541-0.62207-0.24268-0.10596-0.42382-0.1333-0.23926-0.01367-0.39307 0z m-0.40674 5.09619l0 3.72559-2.33789 1.17578q-0.01367-0.01709-0.01367-3.72559l0-3.72217 2.33789-1.16211q0.01367 0 0.01367 3.7085z m3.40088-2.60449l0.09912 0.04101 0 3.72559q0 3.72217-0.01367 3.72217l-2.33789-1.15869 0-7.45118 1.07666 0.54688q1.06641 0.5332 1.17578 0.57422z m3.58545 6.31298q0 0.01709-1.15527 0.59815-1.15527 0.57764-1.16895 0.57764-0.01367 0-0.01367-3.72217l0-3.72559 0.09912-0.04101q0.0957-0.04102 1.16211-0.57422l1.07666-0.52979 0 3.69483q0.01367 3.7085 0 3.72216z" fill="#1A1A1A"></path>
          </svg>
</svg>
