<svg xmlns="http://www.w3.org/2000/svg" width="104" height="88" viewBox="0 0 104 88" role="img"><title>social-media-image-resizer</title>
<svg viewBox="0 0 24 24" preserveAspectRatio="none" xmlns="http://www.w3.org/2000/svg" x="8" y="8" width="72" height="72" overflow="visible">
          <path d="M11.01451 21.00000L5.00000 21.00000L4.65270 20.96962L4.39859 20.90743L4.15476 20.81262L3.92540 20.68678L3.71442 20.53209L3.52545 20.35118L3.36170 20.14715L3.22598 19.92350L3.15224 19.76537L3.06815 19.51764L3.03038 19.34730L3.00000 19.00000L3.00190 4.91276L3.04741 4.56712L3.15224 4.23463L3.26795 4.00000L3.36170 3.85285L3.58579 3.58579L3.78248 3.41329L3.92540 3.31322L4.23463 3.15224L4.56712 3.04741L4.91276 3.00190L19.00000 3.00000L19.26105 3.01711L19.43288 3.04741L19.76537 3.15224L20.00000 3.26795L20.21752 3.41329L20.41421 3.58579L20.53209 3.71442L20.68678 3.92540L20.81262 4.15476L20.90743 4.39859L20.96962 4.65270L21.00000 5.00000L21.00000 11.01451 M11.00000 9.00000L10.99037 9.19603L10.96157 9.39018L10.91388 9.58057L10.84776 9.76537L10.76384 9.94279L10.66294 10.11114L10.54602 10.26879L10.41421 10.41421L10.26879 10.54602L10.11114 10.66294L9.94279 10.76384L9.76537 10.84776L9.58057 10.91388L9.39018 10.96157L9.19603 10.99037L9.00000 11.00000L8.80397 10.99037L8.60982 10.96157L8.41943 10.91388L8.23463 10.84776L8.05721 10.76384L7.88886 10.66294L7.73121 10.54602L7.58579 10.41421L7.45398 10.26879L7.33706 10.11114L7.23616 9.94279L7.15224 9.76537L7.08612 9.58057L7.03843 9.39018L7.00963 9.19603L7.00000 9.00000L7.00963 8.80397L7.03843 8.60982L7.08612 8.41943L7.15224 8.23463L7.23616 8.05721L7.33706 7.88886L7.45398 7.73121L7.58579 7.58579L7.73121 7.45398L7.88886 7.33706L8.05721 7.23616L8.23463 7.15224L8.41943 7.08612L8.60982 7.03843L8.80397 7.00963L9.00000 7.00000L9.19603 7.00963L9.39018 7.03843L9.58057 7.08612L9.76537 7.15224L9.94279 7.23616L10.11114 7.33706L10.26879 7.45398L10.41421 7.58579L10.54602 7.73121L10.66294 7.88886L10.76384 8.05721L10.84776 8.23463L10.91388 8.41943L10.96157 8.60982L10.99037 8.80397L11.00000 9.00000Z M11.19662 15.80338L6.00000 21.00000" fill="none" stroke="#0066FF" stroke-width="2" stroke-linecap="round" stroke-linejoin="round"></path>
        </svg>
<svg viewBox="0 0 13.99993896484375 14" preserveAspectRatio="xMidYMid meet" xmlns="http://www.w3.org/2000/svg" x="53" y="53" width="22" height="22" overflow="visible">
            <path d="M3.90674 0.60156q-0.29395 0.02734-0.58789 0.16748-0.29395 0.14014-0.50586 0.36573-0.30762 0.33496-0.43408 0.81005l-0.04102 0.1709 0 9.79932 0.04102 0.16748q0.07178 0.25293 0.18115 0.44092 0.11279 0.18799 0.29394 0.37256 0.18457 0.18115 0.37256 0.29394 0.18799 0.10938 0.44092 0.18115l0.16748 0.04102 6.33008 0 0.16748-0.04102q0.25293-0.07178 0.44092-0.18115 0.18799-0.11279 0.36914-0.29394 0.18457-0.18457 0.29394-0.37256 0.11279-0.18799 0.18457-0.44092l0.04102-0.16748 0-9.83008-0.04102-0.16748q-0.12646-0.46143-0.43408-0.78271-0.44775-0.4751-1.13476-0.54688-0.16748-0.01367-3.06592-0.01367-2.89844 0-3.07959 0.02734z m6.24463 1.20313q0.19482 0.09912 0.29394 0.29394l0.04102 0.09912 0 9.6045-0.02735 0.08544q-0.12646 0.26318-0.37939 0.33497-0.08203 0.02734-3.07959 0.02734-2.99756 0-3.07959-0.02734-0.25293-0.07178-0.37939-0.33497l-0.02735-0.08544 0-9.6045 0.04102-0.09912q0.11279-0.24951 0.37939-0.32129 0.08545-0.02734 3.10694-0.02734l3.01123 0.01367 0.09912 0.04102z m-3.30518 8.13476q-0.25293 0.08545-0.37939 0.30762-0.04102 0.08545-0.04102 0.23926 0 0.15381 0.03418 0.23926 0.0376 0.08203 0.1333 0.18115 0.15381 0.15381 0.3999 0.16748 0.24609 0.01367 0.42041-0.16065 0.17432-0.17432 0.17432-0.41357 0-0.23926-0.16748-0.3999-0.16748-0.16064-0.39307-0.17432-0.14014 0-0.18115 0.01367z" fill="#1A1A1A"></path>
          </svg>
</svg>
